<?xml version="1.0" encoding="UTF-8"?>
<svg version="1.1" xmlns="http://www.w3.org/2000/svg" width="400" height="300">
<path d="M0 0 C6.90514158 0.57542846 13.01433039 5.11464863 18.89404297 8.48120117 C26.81541118 13.01538974 34.74708255 17.5317004 42.875 21.6875 C44.63457031 22.59048828 44.63457031 22.59048828 46.4296875 23.51171875 C56.52433104 27.71966097 66.70164205 27.29405728 77.4296875 27.265625 C79.22893323 27.26697472 81.0281786 27.2689178 82.8274231 27.27142334 C86.58794649 27.27436167 90.34837447 27.27011968 94.10888672 27.26074219 C98.90215112 27.24936497 103.69519106 27.25590441 108.48844719 27.26788712 C112.20160578 27.27515479 115.9147122 27.2727951 119.62787247 27.26763153 C121.39391227 27.26630771 123.15995699 27.26789772 124.92599106 27.27259064 C134.14766523 27.29171803 142.97942389 27.20827909 152 25 C152 24.34 152 23.68 152 23 C153.52367187 22.37544922 153.52367187 22.37544922 155.078125 21.73828125 C158.79728133 20.14315566 162.25360334 18.22975012 165.75 16.1875 C166.97997967 15.47441614 168.21045414 14.76218512 169.44140625 14.05078125 C170.04355957 13.70225098 170.64571289 13.3537207 171.26611328 12.99462891 C174.58881091 11.08859256 177.95633709 9.26704156 181.33203125 7.45703125 C183.2226108 6.42454783 185.09344151 5.35552123 186.94921875 4.26171875 C187.91472656 3.70097656 188.88023437 3.14023438 189.875 2.5625 C190.73867188 2.04816406 191.60234375 1.53382812 192.4921875 1.00390625 C195.53409432 -0.21380411 196.96152778 -0.19993903 200 1 C201.23950195 2.7956543 201.23950195 2.7956543 202 5 C201.51586914 6.97607422 201.51586914 6.97607422 200.47265625 9.1796875 C198.50209215 13.69443035 196.86644201 18.25526976 195.37109375 22.9453125 C195.13791946 23.67157837 194.90474518 24.39784424 194.664505 25.14611816 C193.91949674 27.471567 193.17826638 29.79819674 192.4375 32.125 C189.3274283 41.8714488 186.19017054 51.59631516 182.734375 61.2265625 C182.47564102 61.95316071 182.21690704 62.67975891 181.95033264 63.42837524 C180.72667031 66.86326035 179.48655491 70.29022563 178.21459961 73.70751953 C174.72067579 83.21890263 174.72067579 83.21890263 176 93 C177.34172071 95.4923917 178.95812743 97.5572265 180.8125 99.6875 C181.69581748 100.75240992 182.57734443 101.8188077 183.45703125 102.88671875 C183.88338867 103.39984619 184.30974609 103.91297363 184.74902344 104.44165039 C189.94977983 110.92026632 189.94977983 110.92026632 190.125 114.6875 C188.43606117 118.1592076 186.60491654 118.71252981 183 120 C180.9135419 120.23182868 178.82602906 120.45773493 176.734375 120.63671875 C161.56847711 122.65161661 143.966852 128.31945097 131.8203125 137.6796875 C130 139 130 139 128 139 C128 139.66 128 140.32 128 141 C127.29875 141.515625 126.5975 142.03125 125.875 142.5625 C118.70273187 148.64333602 115.25944284 156.87826578 113.0625 165.8125 C111.83932172 169.48203485 111.34639381 170.19400969 108 172 C105.09272008 172.32046482 102.46363451 172.46475233 99.5625 172.4375 C98.81162109 172.45748047 98.06074219 172.47746094 97.28710938 172.49804688 C93.50203343 172.49471787 91.40037653 172.22802901 88.05078125 170.3203125 C85.65793888 167.61298227 85.19969623 165.97517923 84.625 162.4375 C81.99189237 150.54511281 74.99016504 142.65195812 65 136 C50.31634049 127.0745582 33.7868783 122.32381836 16.96557617 119.37988281 C14.95871089 119.00801048 12.97544511 118.51323865 11 118 C9 115 9 115 9.0390625 112.75 C10.39864568 108.85916033 12.75721459 106.14134249 15.375 103 C17.27446661 100.68502507 19.14529873 98.35090894 21 96 C21.63164063 95.236875 22.26328125 94.47375 22.9140625 93.6875 C26.81121419 84.04275049 19.94518699 71.34374169 16.6875 62.1875 C15.52078662 58.8698697 14.35990012 55.55021331 13.19921875 52.23046875 C12.91720612 51.42753387 12.63519348 50.624599 12.34463501 49.79733276 C10.39792298 44.22852741 8.62085474 38.62395807 6.9230957 32.97387695 C5.03975849 26.90645284 2.82535035 20.94768021 0.6484375 14.98046875 C0.30554688 14.01753906 -0.03734375 13.05460937 -0.390625 12.0625 C-0.70032227 11.20785156 -1.01001953 10.35320312 -1.32910156 9.47265625 C-2.04700819 6.82674712 -2.26652418 4.72754611 -2 2 C-1.34 1.34 -0.68 0.68 0 0 Z M38 68 C40.21528859 72.74873033 42.37726858 77.13575315 46 81 C46.66 81 47.32 81 48 81 C48.25910156 81.60585937 48.51820313 82.21171875 48.78515625 82.8359375 C51.29806503 87.31230877 55.92191076 89.35757183 60.69140625 90.83203125 C66.76429584 92.14120773 71.12710522 91.99456804 77 90 C76.66951441 84.71223057 73.51647805 80.75899378 70 77 C69.34 77 68.68 77 68 77 C68 76.34 68 75.68 68 75 C57.93601281 68.79030577 49.86633623 67.54425167 38 68 Z M141 70 C140.01 70.33 139.02 70.66 138 71 C131.68199257 74.89318582 125.13840986 80.26448443 123.33984375 87.74609375 C123.22769531 88.48988281 123.11554688 89.23367187 123 90 C132.35235222 92.47143908 138.6561861 91.82907795 147.1875 87.3125 C153.78695301 81.88628308 158.18423439 75.59636287 162 68 C151.2998725 67.60662225 151.2998725 67.60662225 141 70 Z M95 148 C95.65271556 151.51705958 96.51393024 154.89325077 97.5625 158.3125 C97.83191406 159.19550781 98.10132813 160.07851562 98.37890625 160.98828125 C98.58386719 161.65214844 98.78882813 162.31601563 99 163 C101.19708121 160.80291879 101.64677679 159.48226667 102.5625 156.5625 C102.81128906 155.78003906 103.06007813 154.99757812 103.31640625 154.19140625 C103.54199219 153.46824219 103.76757812 152.74507812 104 152 C104.33 151.01 104.66 150.02 105 149 C100.03079316 147.22240124 100.03079316 147.22240124 95 148 Z " fill="#DB8747" transform="translate(96,61)"/>
<path d="M0 0 C-1.04941116 5.68431045 -5.01889734 9.38383731 -9.375 12.9375 C-13.15792885 14.46868549 -15.92114981 14.32893953 -20 14 C-20.99 13.34 -21.98 12.68 -23 12 C-19.83561644 5.21917808 -19.83561644 5.21917808 -17 3 C-16.34 3 -15.68 3 -15 3 C-14.67 2.34 -14.34 1.68 -14 1 C-11.34765625 0.33203125 -11.34765625 0.33203125 -8.0625 -0.1875 C-6.98097656 -0.36667969 -5.89945313 -0.54585937 -4.78515625 -0.73046875 C-2 -1 -2 -1 0 0 Z " fill="#DB8A49" transform="translate(243,137)"/>
<path d="M0 0 C1.18851563 0.19464844 2.37703125 0.38929688 3.6015625 0.58984375 C4.97441406 0.82380859 4.97441406 0.82380859 6.375 1.0625 C6.375 1.7225 6.375 2.3825 6.375 3.0625 C7.29539063 3.42988281 7.29539063 3.42988281 8.234375 3.8046875 C10.80135567 5.31302285 11.41357904 6.50506788 12.625 9.1875 C12.96015625 9.91195312 13.2953125 10.63640625 13.640625 11.3828125 C14.00414062 12.21425781 14.00414062 12.21425781 14.375 13.0625 C9.74342206 14.60635931 5.35098629 14.8336166 0.8125 13.0625 C-2.75511548 10.13522576 -5.97451517 6.85108927 -8.625 3.0625 C-8.625 2.0725 -8.625 1.0825 -8.625 0.0625 C-5.61666904 -1.44166548 -3.27538422 -0.54589737 0 0 Z " fill="#D78445" transform="translate(157.625,136.9375)"/>
<path d="M0 0 C2.1171875 1.015625 2.1171875 1.015625 3.53515625 2.78125 C4.30413607 5.73330677 3.68100201 7.00834251 2.4296875 9.765625 C2.04941406 10.63445312 1.66914063 11.50328125 1.27734375 12.3984375 C0.70306641 13.69394531 0.70306641 13.69394531 0.1171875 15.015625 C-0.47833757 16.5526233 -1.06310121 18.09387262 -1.6328125 19.640625 C-2.0453125 20.754375 -2.4578125 21.868125 -2.8828125 23.015625 C-3.10517578 22.10296875 -3.10517578 22.10296875 -3.33203125 21.171875 C-3.73227954 19.60494553 -4.195446 18.05367576 -4.6953125 16.515625 C-4.8828125 14.015625 -4.8828125 14.015625 -2.9453125 11.703125 C-2.2646875 11.14625 -1.5840625 10.589375 -0.8828125 10.015625 C-1.5428125 9.025625 -2.2028125 8.035625 -2.8828125 7.015625 C-2.8828125 6.025625 -2.8828125 5.035625 -2.8828125 4.015625 C-3.83542969 4.50933594 -4.78804688 5.00304687 -5.76953125 5.51171875 C-7.03629421 6.15917537 -8.30323051 6.80629294 -9.5703125 7.453125 C-10.50907227 7.94135742 -10.50907227 7.94135742 -11.46679688 8.43945312 C-14.91994889 10.19314813 -18.03474769 11.49322997 -21.8828125 12.015625 C-18.6880576 8.61392737 -15.03096406 6.56353319 -11.0078125 4.265625 C-10.30011719 3.84152344 -9.59242188 3.41742188 -8.86328125 2.98046875 C-5.72857483 1.18837402 -3.65684743 0.01982031 0 0 Z " fill="#D68647" transform="translate(293.8828125,60.984375)"/>
<path d="M0 0 C5.18384187 1.88096206 6.35829574 6.02950798 8.61328125 10.73828125 C10.20281635 14.4770469 11.37950499 18.19839504 12.359375 22.13671875 C12.82745062 24.20556944 12.82745062 24.20556944 15 25 C17.47005337 25.09833936 19.90557661 25.13903081 22.375 25.125 C23.38433594 25.13080078 23.38433594 25.13080078 24.4140625 25.13671875 C27.75280945 25.13014641 30.80853085 25.03109003 34 24 C33.0234375 25.47265625 33.0234375 25.47265625 31 27 C28.11445967 27.32616596 25.50674359 27.46427296 22.625 27.4375 C21.49191406 27.4674707 21.49191406 27.4674707 20.3359375 27.49804688 C16.53658982 27.49472577 14.41199506 27.23464619 11.05078125 25.3203125 C8.66568468 22.62174609 8.16765127 20.96051243 7.5625 17.4375 C6.17727461 10.88989396 3.45800202 5.68500008 0 0 Z " fill="#BF7F4B" transform="translate(173,206)"/>
<path d="M0 0 C1.1653125 -0.01675781 2.330625 -0.03351563 3.53125 -0.05078125 C5.00078125 0.12904297 5.00078125 0.12904297 6.5 0.3125 C7.16 1.3025 7.82 2.2925 8.5 3.3125 C7.84 3.3125 7.18 3.3125 6.5 3.3125 C6.4175 3.869375 6.335 4.42625 6.25 5 C5.2723543 8.01440759 3.50690996 9.87988186 1.5 12.3125 C0.79114106 13.62388904 0.10543548 14.95027017 -0.5 16.3125 C-1.16 16.3125 -1.82 16.3125 -2.5 16.3125 C-2.83 17.3025 -3.16 18.2925 -3.5 19.3125 C-4.16 19.3125 -4.82 19.3125 -5.5 19.3125 C-4.94409931 15.42119519 -3.22189956 14.03439956 -0.5 11.3125 C1.26907863 8.69908839 2.87517962 6.02053396 4.5 3.3125 C0.21 2.9825 -4.08 2.6525 -8.5 2.3125 C-5.71220121 -0.47529879 -3.88197673 0.01288267 0 0 Z " fill="#C6834E" transform="translate(252.5,126.6875)"/>
<path d="M0 0 C3.60839973 5.41259959 5.28655206 10.50237155 4 17 C2.65344235 19.31929482 1.16908963 21.25253532 -0.58984375 23.2734375 C-2.21590163 25.05572371 -2.21590163 25.05572371 -3 28 C-4.32 27.67 -5.64 27.34 -7 27 C-6.50628906 26.37351563 -6.01257813 25.74703125 -5.50390625 25.1015625 C-4.86324219 24.28429687 -4.22257812 23.46703125 -3.5625 22.625 C-2.92441406 21.81289062 -2.28632812 21.00078125 -1.62890625 20.1640625 C0.90693959 16.79509704 1.08375847 15.32252565 0.625 11.1875 C0.47804688 9.84945312 0.47804688 9.84945312 0.328125 8.484375 C0.08247731 6.62447105 -0.24986385 4.77566712 -0.625 2.9375 C-0.74875 2.298125 -0.8725 1.65875 -1 1 C-0.67 0.67 -0.34 0.34 0 0 Z " fill="#C5804A" transform="translate(119,136)"/>
<path d="M0 0 C1.16015625 0.63228516 1.16015625 0.63228516 2.34375 1.27734375 C11.53851487 6.11369903 17.73058523 7.65044166 28 6 C27.67 4.35 27.34 2.7 27 1 C27.99 1.99 28.98 2.98 30 4 C29.31640625 5.9140625 29.31640625 5.9140625 28 8 C20.50929069 10.9450652 13.16097792 10.21184768 5.921875 7.109375 C4 6.125 4 6.125 1 4 C0.3125 1.8671875 0.3125 1.8671875 0 0 Z " fill="#C97A40" transform="translate(145,145)"/>
<path d="M0 0 C0.66 0.33 1.32 0.66 2 1 C2 3 2 3 0.0625 5 C-0.618125 5.66 -1.29875 6.32 -2 7 C-2.33 7.66 -2.66 8.32 -3 9 C2.86448454 8.7444669 6.65757571 8.34242429 11 4 C11.66 4.33 12.32 4.66 13 5 C5.81129279 11.42395113 5.81129279 11.42395113 0.6875 11.5 C-3 11 -3 11 -6 9 C-4.3619751 5.48994665 -2.96865509 2.54456151 0 0 Z " fill="#C2824D" transform="translate(226,140)"/>
<path d="M0 0 C-0.125 2.25 -0.125 2.25 -1 5 C-4 7.25 -4 7.25 -7 9 C-7.33 9.33 -7.66 9.66 -8 10 C-9.66617115 10.04063832 -11.33388095 10.042721 -13 10 C-12.34 9.443125 -11.68 8.88625 -11 8.3125 C-8.74507789 6.15937692 -8.74507789 6.15937692 -8.75 3.25 C-8.8325 2.5075 -8.915 1.765 -9 1 C-5.8035914 -0.06546953 -3.34252724 -0.07427838 0 0 Z " fill="#DE8643" transform="translate(240,139)"/>
<path d="M0 0 C0.66 0.33 1.32 0.66 2 1 C1.814375 1.804375 1.62875 2.60875 1.4375 3.4375 C1.2209375 4.7059375 1.2209375 4.7059375 1 6 C2.93270447 7.93270447 6.40306881 7.65374251 9 8 C13.08921531 8.71561268 17.01855576 9.82898699 21 11 C21 11.66 21 12.32 21 13 C18.08189078 12.5496745 15.16576016 12.09009058 12.25 11.625 C11.0125 11.43550781 11.0125 11.43550781 9.75 11.2421875 C8.95078125 11.11328125 8.1515625 10.984375 7.328125 10.8515625 C6.5949707 10.73635254 5.86181641 10.62114258 5.10644531 10.50244141 C2.80668821 9.95389016 1.01340429 9.24033198 -1 8 C-1.875 5.5625 -1.875 5.5625 -2 3 C-1.34 2.01 -0.68 1.02 0 0 Z " fill="#C97B45" transform="translate(107,170)"/>
<path d="M0 0 C-1.22976562 0.70576172 -1.22976562 0.70576172 -2.484375 1.42578125 C-4.10085937 2.35970703 -4.10085937 2.35970703 -5.75 3.3125 C-6.81734375 3.92738281 -7.8846875 4.54226562 -8.984375 5.17578125 C-11.93973261 6.8893791 -11.93973261 6.8893791 -14.265625 8.73046875 C-16 10 -16 10 -18 10 C-18 10.66 -18 11.32 -18 12 C-19.98 12.99 -19.98 12.99 -22 14 C-22 12.68 -22 11.36 -22 10 C-19.75 8.4375 -19.75 8.4375 -17 7 C-15.948125 6.1646875 -15.948125 6.1646875 -14.875 5.3125 C-13 4 -13 4 -10 4 C-10 3.34 -10 2.68 -10 2 C-3.375 -1.125 -3.375 -1.125 0 0 Z " fill="#C87F49" transform="translate(242,190)"/>
<path d="M0 0 C7.98992213 -0.7833257 7.98992213 -0.7833257 12.0625 2.375 C14 5 14 5 14 7 C14.66 7 15.32 7 16 7 C16.66 8.65 17.32 10.3 18 12 C18.66 12 19.32 12 20 12 C19.67 13.32 19.34 14.64 19 16 C18.66226563 15.50628906 18.32453125 15.01257813 17.9765625 14.50390625 C17.53054687 13.86324219 17.08453125 13.22257813 16.625 12.5625 C16.18414062 11.92441406 15.74328125 11.28632813 15.2890625 10.62890625 C14.07839147 8.86259072 14.07839147 8.86259072 12 8 C12 7.34 12 6.68 12 6 C8.15299368 3.91620491 4.09945571 2.50313376 0 1 C0 0.67 0 0.34 0 0 Z " fill="#C57F4A" transform="translate(152,130)"/>
<path d="M0 0 C2.83374881 3.20336822 3.5205537 5.78087253 4 10 C4.66 10 5.32 10 6 10 C6.12375 10.639375 6.2475 11.27875 6.375 11.9375 C6.58125 12.618125 6.7875 13.29875 7 14 C7.66 14.33 8.32 14.66 9 15 C9.4140625 17.06640625 9.4140625 17.06640625 9.625 19.5625 C9.69976562 20.38878906 9.77453125 21.21507813 9.8515625 22.06640625 C9.90054688 22.70449219 9.94953125 23.34257813 10 24 C9.34 24.33 8.68 24.66 8 25 C6.65882147 21.39870379 5.3284161 17.79352141 4 14.1875 C3.6184375 13.16333984 3.236875 12.13917969 2.84375 11.08398438 C2.4828125 10.10107422 2.121875 9.11816406 1.75 8.10546875 C1.41484375 7.19949951 1.0796875 6.29353027 0.734375 5.36010742 C0 3 0 3 0 0 Z " fill="#CC8247" transform="translate(97,74)"/>
<path d="M0 0 C3.55780196 0.60990891 6.6828589 1.5783681 10 3 C9.67 4.32 9.34 5.64 9 7 C5.50765756 7.09978121 2.40562852 6.77842938 -1 6 C-0.67 4.02 -0.34 2.04 0 0 Z " fill="#CB8148" transform="translate(96,61)"/>
<path d="M0 0 C-0.56371414 3.26954202 -1.49962266 4.82575883 -4 7 C-4 5.68 -4 4.36 -4 3 C-7.3 3.33 -10.6 3.66 -14 4 C-13.67 3.01 -13.34 2.02 -13 1 C-10.7464485 -0.12677575 -8.99759671 -0.34118219 -6.5 -0.625 C-5.30890625 -0.76808594 -5.30890625 -0.76808594 -4.09375 -0.9140625 C-2 -1 -2 -1 0 0 Z " fill="#CB8647" transform="translate(243,137)"/>
<path d="M0 0 C0.33 0.99 0.66 1.98 1 3 C-1.24517174 5.5819475 -2.72740242 6.22997704 -6 7 C-6.825 7.53625 -7.65 8.0725 -8.5 8.625 C-11 10 -11 10 -15 9 C-10.05 6.03 -5.1 3.06 0 0 Z " fill="#CB7B43" transform="translate(267,74)"/>
<path d="M0 0 C0.99 0 1.98 0 3 0 C3.33 0.66 3.66 1.32 4 2 C7.63 2 11.26 2 15 2 C14.67 2.66 14.34 3.32 14 4 C11.54137599 4.05383848 9.0839245 4.09359038 6.625 4.125 C5.57699219 4.15013672 5.57699219 4.15013672 4.5078125 4.17578125 C2.67102514 4.19344267 0.83398037 4.10303261 -1 4 C-1.66 3.34 -2.32 2.68 -3 2 C-2.01 2 -1.02 2 0 2 C0 1.34 0 0.68 0 0 Z " fill="#D4803E" transform="translate(189,228)"/>
<path d="M0 0 C4.24646765 0.30331912 6.16825867 3.09373917 9 6 C9.66 6 10.32 6 11 6 C11 7.65 11 9.3 11 11 C2.55353075 4.84965831 2.55353075 4.84965831 -1 1 C-0.67 0.67 -0.34 0.34 0 0 Z " fill="#C78148" transform="translate(162,195)"/>
<path d="M0 0 C-0.33 1.32 -0.66 2.64 -1 4 C-2.74635165 4.53293835 -4.49727652 5.05090663 -6.25 5.5625 C-7.22453125 5.85253906 -8.1990625 6.14257812 -9.203125 6.44140625 C-11.96243932 6.99249836 -13.3912824 6.93789609 -16 6 C-14.80375 5.566875 -13.6075 5.13375 -12.375 4.6875 C-9.67782233 3.68323172 -7.21076249 2.60538125 -4.625 1.3125 C-2 0 -2 0 0 0 Z " fill="#C77945" transform="translate(245,147)"/>
<path d="M0 0 C1.32 0.33 2.64 0.66 4 1 C3.21085079 2.60540659 2.41858235 4.20928016 1.625 5.8125 C1.18414062 6.70582031 0.74328125 7.59914062 0.2890625 8.51953125 C-1 11 -1 11 -3 14 C-4.07010304 11.23556715 -4.16283213 9.46148633 -3.17578125 6.6640625 C-2.16488321 4.41525773 -1.11596524 2.19840363 0 0 Z " fill="#C97F46" transform="translate(212,209)"/>
<path d="M0 0 C1.65 0 3.3 0 5 0 C4.319375 0.495 3.63875 0.99 2.9375 1.5 C-0.78958586 4.67198797 -3.85333242 8.26389901 -7 12 C-7.33 11.01 -7.66 10.02 -8 9 C-6.85546875 7.17578125 -6.85546875 7.17578125 -5.1875 5.3125 C-4.64480469 4.68988281 -4.10210937 4.06726563 -3.54296875 3.42578125 C-2 2 -2 2 0 2 C0 1.34 0 0.68 0 0 Z " fill="#C5804A" transform="translate(229,132)"/>
<path d="M0 0 C2.1875 0.3125 2.1875 0.3125 4 1 C3.01 1.495 3.01 1.495 2 2 C2.144375 2.53625 2.28875 3.0725 2.4375 3.625 C3.09453748 6.39915827 3.55219948 9.18525388 4 12 C3.01 12.495 3.01 12.495 2 13 C2 11.02 2 9.04 2 7 C1.0409375 6.566875 1.0409375 6.566875 0.0625 6.125 C-2 5 -2 5 -3 3 C-1.75 1.4375 -1.75 1.4375 0 0 Z " fill="#C67D49" transform="translate(190,208)"/>
<path d="M0 0 C6.41991126 0.57065878 12.01589463 2.67344909 18 5 C17.67 5.99 17.34 6.98 17 8 C16.27554688 7.66226563 15.55109375 7.32453125 14.8046875 6.9765625 C9.93300543 4.72909317 5.15481852 2.53251361 0 1 C0 0.67 0 0.34 0 0 Z " fill="#C88450" transform="translate(139,186)"/>
<path d="M0 0 C1 2 1 2 0.22265625 4.8203125 C-0.16019531 5.91085938 -0.54304688 7.00140625 -0.9375 8.125 C-1.31777344 9.22070312 -1.69804687 10.31640625 -2.08984375 11.4453125 C-2.39019531 12.28835937 -2.69054687 13.13140625 -3 14 C-3.22042969 13.08541016 -3.22042969 13.08541016 -3.4453125 12.15234375 C-3.98255745 9.93068561 -3.98255745 9.93068561 -4.875 7.5625 C-5 5 -5 5 -2.5625 2.1875 C-1.716875 1.465625 -0.87125 0.74375 0 0 Z " fill="#C98046" transform="translate(294,70)"/>
<path d="M0 0 C4.62 0 9.24 0 14 0 C14 0.99 14 1.98 14 3 C9.05 2.67 4.1 2.34 -1 2 C-0.67 1.34 -0.34 0.68 0 0 Z " fill="#C88653" transform="translate(136,127)"/>
<path d="M0 0 C7.92 3.96 7.92 3.96 16 8 C14.68 8.33 13.36 8.66 12 9 C12 8.34 12 7.68 12 7 C11.319375 6.9175 10.63875 6.835 9.9375 6.75 C6.1253093 5.77667472 3.35929671 4.04192545 0 2 C0 1.34 0 0.68 0 0 Z " fill="#C47C42" transform="translate(107,66)"/>
<path d="M0 0 C0.66 0.99 1.32 1.98 2 3 C0.6875 5.5 0.6875 5.5 -1 8 C-1.99 8 -2.98 8 -4 8 C-4.33 6.35 -4.66 4.7 -5 3 C-4.360625 2.87625 -3.72125 2.7525 -3.0625 2.625 C-2.0415625 2.315625 -2.0415625 2.315625 -1 2 C-0.67 1.34 -0.34 0.68 0 0 Z " fill="#D47A3B" transform="translate(198,219)"/>
<path d="M0 0 C0 3 0 3 -1 6 C-0.01 6.33 0.98 6.66 2 7 C1.01 8.485 1.01 8.485 0 10 C-0.66 10 -1.32 10 -2 10 C-3.34771696 7.78023089 -4.04398726 6.49852224 -3.8125 3.875 C-3 2 -3 2 0 0 Z " fill="#D0864D" transform="translate(218,198)"/>
<path d="M0 0 C5.80205656 5.64524422 5.80205656 5.64524422 8 9 C8 9.66 8 10.32 8 11 C5.6875 10.5625 5.6875 10.5625 3 9 C1.63924116 6.09244107 0.78637041 3.10712212 0 0 Z " fill="#C6804B" transform="translate(270,153)"/>
<path d="M0 0 C0.99 1.32 1.98 2.64 3 4 C1 6 1 6 -1.09375 6.23046875 C-1.8878125 6.21628906 -2.681875 6.20210937 -3.5 6.1875 C-4.2940625 6.18105469 -5.088125 6.17460937 -5.90625 6.16796875 C-8 6 -8 6 -10 5 C-10 4.34 -10 3.68 -10 3 C-6.7 3.33 -3.4 3.66 0 4 C0 2.68 0 1.36 0 0 Z " fill="#C27A47" transform="translate(169,145)"/>
<path d="M0 0 C0.66 0.99 1.32 1.98 2 3 C-2.8043208 5.4021604 -7.73103895 5.61122229 -13 6 C-10.47519307 3.47519307 -8.86176966 3.44261367 -5.375 2.875 C-4.37210938 2.70742187 -3.36921875 2.53984375 -2.3359375 2.3671875 C-1.17964844 2.18542969 -1.17964844 2.18542969 0 2 C0 1.34 0 0.68 0 0 Z " fill="#CA7A41" transform="translate(248,84)"/>
<path d="M0 0 C1.98 0.99 3.96 1.98 6 3 C4.68 3.33 3.36 3.66 2 4 C2 4.66 2 5.32 2 6 C2.66 6.33 3.32 6.66 4 7 C3.01 7 2.02 7 1 7 C1 6.34 1 5.68 1 5 C0.34 5 -0.32 5 -1 5 C-0.67 3.35 -0.34 1.7 0 0 Z " fill="#CE844A" transform="translate(133,80)"/>
<path d="M0 0 C0.33 1.32 0.66 2.64 1 4 C-0.98 5.32 -2.96 6.64 -5 8 C-5.33 7.34 -5.66 6.68 -6 6 C-6.99 5.67 -7.98 5.34 -9 5 C-5.98968256 4.06576355 -5.13349732 3.95550089 -2 5 C-1.855625 4.360625 -1.71125 3.72125 -1.5625 3.0625 C-1 1 -1 1 0 0 Z " fill="#CB8447" transform="translate(285,173)"/>
<path d="M0 0 C1.33895632 1.66215268 2.67130142 3.32963607 4 5 C4.5775 5.721875 5.155 6.44375 5.75 7.1875 C7 9 7 9 7 11 C5.1875 10.875 5.1875 10.875 3 10 C0.71094011 6.32115375 0 4.38448044 0 0 Z " fill="#C07A4C" transform="translate(134,130)"/>
<path d="M0 0 C1.32 0 2.64 0 4 0 C3.34 2.31 2.68 4.62 2 7 C1.01 6.67 0.02 6.34 -1 6 C-0.67 4.02 -0.34 2.04 0 0 Z " fill="#DC7135" transform="translate(96,61)"/>
<path d="M0 0 C2.3129482 2.3129482 2.49580975 3.47904875 3.125 6.625 C3.29257813 7.44226563 3.46015625 8.25953125 3.6328125 9.1015625 C3.81457031 10.04128906 3.81457031 10.04128906 4 11 C3.01 11.495 3.01 11.495 2 12 C1.01 8.37 0.02 4.74 -1 1 C-0.67 0.67 -0.34 0.34 0 0 Z " fill="#C47D46" transform="translate(115,124)"/>
<path d="M0 0 C3.73487777 0.4979837 5.81237635 0.87491756 9 3 C2.25 4.125 2.25 4.125 0 3 C0 2.01 0 1.02 0 0 Z " fill="#D78E3D" transform="translate(157,192)"/>
<path d="M0 0 C0.66 0.33 1.32 0.66 2 1 C1.7525 1.7425 1.505 2.485 1.25 3.25 C1.1675 4.1575 1.085 5.065 1 6 C2.83358335 8.33454661 2.83358335 8.33454661 5 10 C3.02 9.34 1.04 8.68 -1 8 C-1.625 5.6875 -1.625 5.6875 -2 3 C-1.34 2.01 -0.68 1.02 0 0 Z " fill="#B77F54" transform="translate(107,170)"/>
<path d="M0 0 C0.66 0.33 1.32 0.66 2 1 C1.34 2.32 0.68 3.64 0 5 C-0.66 5 -1.32 5 -2 5 C-2.33 5.99 -2.66 6.98 -3 8 C-3.66 8 -4.32 8 -5 8 C-4.45773019 4.20411134 -2.79872437 2.52788007 0 0 Z " fill="#CA7740" transform="translate(252,138)"/>
<path d="M0 0 C-2.98646769 1.99097846 -5.59687262 2.94124926 -9 4 C-9.33 2.68 -9.66 1.36 -10 0 C-6.7169902 -1.6415049 -3.57454967 -0.51888624 0 0 Z " fill="#C2854C" transform="translate(159,137)"/>
<path d="M0 0 C-2.297221 1.74271938 -4.59866729 3.39911152 -7 5 C-9.1875 4.625 -9.1875 4.625 -11 4 C-9.73760288 3.13341385 -8.46472499 2.28207941 -7.1875 1.4375 C-6.47980469 0.96183594 -5.77210938 0.48617187 -5.04296875 -0.00390625 C-3 -1 -3 -1 0 0 Z " fill="#C77B45" transform="translate(283,68)"/>
<path d="M0 0 C0.33 0.99 0.66 1.98 1 3 C-5.625 7 -5.625 7 -9 7 C-9 6.34 -9 5.68 -9 5 C-6.03 3.35 -3.06 1.7 0 0 Z " fill="#D16931" transform="translate(291,61)"/>
<path d="M0 0 C2.97 0 5.94 0 9 0 C5.55549263 2.29633824 3.06187717 2.54016485 -1 3 C-0.67 2.01 -0.34 1.02 0 0 Z " fill="#CD8946" transform="translate(249,184)"/>
<path d="M0 0 C3 1 3 1 4.1875 3.0625 C4.455625 3.701875 4.72375 4.34125 5 5 C4.01 6.32 3.02 7.64 2 9 C1.855625 8.2575 1.71125 7.515 1.5625 6.75 C1.09812508 4.47972261 0.58136431 2.24240521 0 0 Z " fill="#C97640" transform="translate(293,61)"/>
<path d="M0 0 C0.66 0.33 1.32 0.66 2 1 C2 3.97 2 6.94 2 10 C1.01 9.34 0.02 8.68 -1 8 C-1.25660094 4.92078868 -1.39431504 2.78863007 0 0 Z " fill="#D69244" transform="translate(157,140)"/>
<path d="M0 0 C0.66 0.33 1.32 0.66 2 1 C2 1.66 2 2.32 2 3 C0.37373596 4.38232443 -1.2925002 5.71937515 -3 7 C-3 3 -3 3 -1.5 1.25 C-1.005 0.8375 -0.51 0.425 0 0 Z " fill="#C87A3B" transform="translate(226,140)"/>
<path d="M0 0 C1.98 0 3.96 0 6 0 C5.67 0.99 5.34 1.98 5 3 C3.35 3 1.7 3 0 3 C0 2.01 0 1.02 0 0 Z " fill="#D38241" transform="translate(269,73)"/>
<path d="" fill="#FFFF00" transform="translate(0,0)"/>
<path d="" fill="#FFFF00" transform="translate(0,0)"/>
<path d="" fill="#AAAA55" transform="translate(0,0)"/>
<path d="" fill="#FFFF00" transform="translate(0,0)"/>
<path d="" fill="#808080" transform="translate(0,0)"/>
<path d="" fill="#808080" transform="translate(0,0)"/>
<path d="" fill="#AA5555" transform="translate(0,0)"/>
<path d="" fill="#AAAA55" transform="translate(0,0)"/>
<path d="" fill="#808080" transform="translate(0,0)"/>
<path d="" fill="#FFFF00" transform="translate(0,0)"/>
<path d="" fill="#FF0000" transform="translate(0,0)"/>
</svg>
